<svg width="31" height="30" viewBox="0 0 31 30" fill="none" xmlns="http://www.w3.org/2000/svg">
<rect x="0.805176" width="30" height="30" rx="15" fill="white"/>
<path d="M15.8079 11.9234C14.1049 11.9234 12.7312 13.297 12.7312 15C12.7312 16.703 14.1049 18.0766 15.8079 18.0766C17.5109 18.0766 18.8845 16.703 18.8845 15C18.8845 13.297 17.5109 11.9234 15.8079 11.9234ZM15.8079 17.0002C14.7073 17.0002 13.8076 16.1032 13.8076 15C13.8076 13.8968 14.7047 12.9998 15.8079 12.9998C16.9111 12.9998 17.8081 13.8968 17.8081 15C17.8081 16.1032 16.9084 17.0002 15.8079 17.0002ZM19.728 11.7975C19.728 12.1965 19.4066 12.5151 19.0104 12.5151C18.6114 12.5151 18.2927 12.1938 18.2927 11.7975C18.2927 11.4012 18.6141 11.0799 19.0104 11.0799C19.4066 11.0799 19.728 11.4012 19.728 11.7975ZM21.7657 12.5258C21.7202 11.5645 21.5006 10.713 20.7964 10.0115C20.0948 9.30994 19.2433 9.09037 18.282 9.04217C17.2913 8.98594 14.3217 8.98594 13.331 9.04217C12.3724 9.08769 11.5209 9.30726 10.8167 10.0088C10.1124 10.7104 9.89555 11.5619 9.84735 12.5232C9.79112 13.5139 9.79112 16.4834 9.84735 17.4742C9.89287 18.4355 10.1124 19.287 10.8167 19.9885C11.5209 20.6901 12.3697 20.9096 13.331 20.9578C14.3217 21.0141 17.2913 21.0141 18.282 20.9578C19.2433 20.9123 20.0948 20.6927 20.7964 19.9885C21.4979 19.287 21.7175 18.4355 21.7657 17.4742C21.8219 16.4834 21.8219 13.5166 21.7657 12.5258ZM20.4858 18.5372C20.2769 19.062 19.8726 19.4664 19.3451 19.6779C18.5551 19.9912 16.6808 19.9189 15.8079 19.9189C14.9349 19.9189 13.0579 19.9885 12.2706 19.6779C11.7458 19.469 11.3415 19.0647 11.13 18.5372C10.8167 17.7473 10.889 15.8729 10.889 15C10.889 14.1271 10.8193 12.25 11.13 11.4628C11.3388 10.938 11.7431 10.5336 12.2706 10.3221C13.0606 10.0088 14.9349 10.0811 15.8079 10.0811C16.6808 10.0811 18.5578 10.0115 19.3451 10.3221C19.8699 10.531 20.2742 10.9353 20.4858 11.4628C20.799 12.2527 20.7267 14.1271 20.7267 15C20.7267 15.8729 20.799 17.75 20.4858 18.5372Z" fill="#444444"/>
</svg>
