<svg width="31" height="30" viewBox="0 0 31 30" fill="none" xmlns="http://www.w3.org/2000/svg">
<rect x="0.805176" width="30" height="30" rx="15" fill="white"/>
<path d="M20.5717 12.6282C20.5793 12.7347 20.5793 12.8414 20.5793 12.948C20.5793 16.1992 18.1047 19.9454 13.5818 19.9454C12.1884 19.9454 10.894 19.5419 9.80518 18.8414C10.0032 18.8642 10.1935 18.8718 10.3991 18.8718C11.5488 18.8718 12.6072 18.4835 13.4524 17.8211C12.3712 17.7982 11.4651 17.0901 11.1529 16.1155C11.3052 16.1383 11.4575 16.1535 11.6174 16.1535C11.8382 16.1535 12.059 16.1231 12.2646 16.0698C11.1377 15.8414 10.2925 14.8515 10.2925 13.6561V13.6256C10.6199 13.8084 11.0006 13.9226 11.4041 13.9378C10.7417 13.4962 10.3077 12.7424 10.3077 11.8896C10.3077 11.4327 10.4295 11.0139 10.6427 10.6484C11.8534 12.1408 13.6732 13.1154 15.7138 13.2221C15.6757 13.0393 15.6529 12.849 15.6529 12.6586C15.6529 11.3033 16.7493 10.1992 18.1123 10.1992C18.8204 10.1992 19.46 10.4962 19.9092 10.9759C20.4651 10.8693 20.9981 10.6637 21.4702 10.382C21.2874 10.953 20.8991 11.4327 20.3889 11.7373C20.8839 11.684 21.3636 11.5469 21.8052 11.3566C21.4702 11.8439 21.0514 12.2779 20.5717 12.6282Z" fill="#444444"/>
</svg>
