<svg width="31" height="30" viewBox="0 0 31 30" fill="none" xmlns="http://www.w3.org/2000/svg">
<rect x="0.805176" width="30" height="30" rx="15" fill="white"/>
<path d="M21.5544 12.121C21.4164 11.6013 21.0098 11.192 20.4935 11.0532C19.5577 10.8008 15.8052 10.8008 15.8052 10.8008C15.8052 10.8008 12.0527 10.8008 11.1169 11.0532C10.6006 11.1921 10.1939 11.6013 10.0559 12.121C9.80518 13.0629 9.80518 15.0281 9.80518 15.0281C9.80518 15.0281 9.80518 16.9932 10.0559 17.9351C10.1939 18.4548 10.6006 18.847 11.1169 18.9859C12.0527 19.2383 15.8052 19.2383 15.8052 19.2383C15.8052 19.2383 19.5577 19.2383 20.4935 18.9859C21.0098 18.847 21.4164 18.4548 21.5544 17.9351C21.8052 16.9932 21.8052 15.0281 21.8052 15.0281C21.8052 15.0281 21.8052 13.0629 21.5544 12.121ZM14.5779 16.8123V13.2438L17.7142 15.0281L14.5779 16.8123Z" fill="#444444"/>
</svg>
